<svg width="56" height="57" viewBox="0 0 56 57" fill="none" xmlns="http://www.w3.org/2000/svg">
<path d="M27.809 56.2277L55.618 45.6339L40.2879 39.7939L55.618 33.9539L40.2879 28.1139L55.618 22.2738L40.2879 16.4338L55.618 10.5938L27.809 0L0 10.5938L15.33 16.4338L0 22.2738L15.33 28.1139L0 33.9539L15.33 39.7939L0 45.6339L27.809 56.2277ZM6.56184 10.5938L27.809 2.49953L49.0562 10.5938L37.007 15.184L27.809 18.6881L18.611 15.184L6.56184 10.5938ZM6.56184 22.2738L18.611 17.6836L27.809 21.1876L37.007 17.6836L49.0562 22.2738L37.007 26.8641L27.809 30.3681L18.611 26.8641L6.56184 22.2738ZM6.56184 33.9539L18.611 29.3636L27.809 32.8676L37.007 29.3636L49.0562 33.9539L37.007 38.5441L27.809 42.0481L18.611 38.5441L6.56184 33.9539ZM37.007 41.0437L49.0562 45.6339L27.809 53.7282L6.56184 45.6339L18.611 41.0437L27.809 44.5477L37.007 41.0437Z" fill="white"/>
</svg>
