<svg width="70" height="54" viewBox="0 0 70 54" fill="none" xmlns="http://www.w3.org/2000/svg">
<path d="M49.1716 8.53408C49.1716 8.53408 21.4456 -1.19949 21.0561 18.6708C21.0561 18.6708 20.9849 22.9328 23.951 22.6115C27.6159 22.2235 30.2683 20.3744 30.2683 17.0839C30.2683 13.7934 35.7959 16.1624 35.7959 16.1624L54.6083 32.6209L59.6296 24.4485" stroke="white" stroke-width="2" stroke-miterlimit="10"/>
<path d="M39.3469 45.3858L31.7095 39.0746" stroke="white" stroke-width="2" stroke-miterlimit="10"/>
<path d="M12.6071 30.2858L9.07135 26.75" stroke="white" stroke-width="2" stroke-miterlimit="10"/>
<path d="M46.2372 25.3048C46.2372 25.3048 56.4497 32.4891 55.9238 35.1218C55.3979 37.7545 51.9755 38.4108 50.0052 36.9633C48.0348 35.5158 37.7662 28.0209 37.7662 28.0209" stroke="white" stroke-width="2" stroke-miterlimit="10"/>
<path d="M34.8682 34.0729C34.8682 34.0729 46.4478 43.2851 48.685 42.4955C51.2161 41.6027 51.5359 38.6093 49.564 37.1573C47.5922 35.7053 37.7631 28.0103 37.7631 28.0103" stroke="white" stroke-width="2" stroke-miterlimit="10"/>
<path d="M34.8684 34.073C34.8684 34.073 46.0115 41.5558 45.9857 43.9247C45.9569 46.609 43.2272 47.8776 41.2175 46.4801C39.2077 45.0827 31.7097 39.0746 31.7097 39.0746" stroke="white" stroke-width="2" stroke-miterlimit="10"/>
<path d="M35.647 43.2501C35.647 43.2501 42.0865 47.3262 42.0716 48.6167C42.055 50.0789 39.6973 52.2613 38.5359 51.5001C37.3745 50.7389 33.8216 47.9644 33.8216 47.9644" stroke="white" stroke-width="2" stroke-miterlimit="10"/>
<path d="M54.2659 2.00289L47.6674 6.09571L61.4015 28.2379L68 24.1451L54.2659 2.00289Z" stroke="white" stroke-width="2" stroke-miterlimit="10"/>
<path d="M2.00006 24.1422L8.59853 28.235L22.3326 6.09283L15.7341 2.00002L2.00006 24.1422Z" stroke="white" stroke-width="2" stroke-miterlimit="10"/>
<path d="M17.7966 29.0981L17.7954 29.0971C16.189 27.8009 13.8358 28.0523 12.5396 29.6588L10.2401 32.5086C8.94381 34.1151 9.19529 36.4682 10.8018 37.7645L10.8029 37.7654C12.4094 39.0617 14.7625 38.8102 16.0588 37.2037L18.3583 34.3539C19.6546 32.7475 19.4031 30.3943 17.7966 29.0981Z" stroke="white" stroke-width="2" stroke-miterlimit="10"/>
<path d="M24.2133 39.1843C25.3288 37.802 25.1126 35.7773 23.7306 34.6621C22.3485 33.5469 20.3239 33.7636 19.2085 35.1459L16.9842 37.9025C15.8687 39.2849 16.0849 41.3096 17.4669 42.4248C18.849 43.5399 20.8736 43.3233 21.989 41.9409L24.2133 39.1843Z" stroke="white" stroke-width="2" stroke-miterlimit="10"/>
<path d="M30.106 43.8986C31.2215 42.5162 31.0053 40.4916 29.6233 39.3764C28.2412 38.2612 26.2166 38.4778 25.1012 39.8602L22.8769 42.6168C21.7614 43.9992 21.9776 46.0239 23.3596 47.139C24.7417 48.2542 26.7663 48.0376 27.8817 46.6552L30.106 43.8986Z" stroke="white" stroke-width="2" stroke-miterlimit="10"/>
<path d="M34.5715 47.6026C35.5145 46.4339 35.3316 44.722 34.1629 43.779C32.9942 42.836 31.2823 43.0189 30.3393 44.1876L28.4576 46.5196C27.5146 47.6883 27.6976 49.4002 28.8663 50.3432C30.035 51.2862 31.7468 51.1033 32.6899 49.9346L34.5715 47.6026Z" stroke="white" stroke-width="2" stroke-miterlimit="10"/>
<path d="M21.8138 8.30673L24.6466 9.47834" stroke="white" stroke-width="2" stroke-miterlimit="10"/>
</svg>
