<svg width="56" height="57" viewBox="0 0 56 57" fill="none" xmlns="http://www.w3.org/2000/svg">
<path d="M49.6775 57H6.32262C5.82368 57 5.41939 56.59 5.41939 56.0841V28.18H0.90326C0.534382 28.18 0.202717 27.9525 0.0650657 27.6059C-0.0722248 27.259 0.011956 26.8618 0.277866 26.6032L27.3747 0.254983C27.7244 -0.0849942 28.2754 -0.0849942 28.6251 0.254983L55.7219 26.6032C55.9882 26.8618 56.0724 27.259 55.9347 27.6059C55.7971 27.9528 55.4654 28.18 55.0965 28.18H50.5804V56.0841C50.5807 56.59 50.1764 57 49.6775 57ZM40.2236 55.1682H48.7743V27.2641C48.7743 26.7582 49.1786 26.3482 49.6775 26.3482H52.85L28.0001 2.18494L3.15049 26.3482H6.32298C6.82193 26.3482 7.22621 26.7582 7.22621 27.2641V55.1682H15.7765V34.7425C15.7765 34.2366 16.1808 33.8266 16.6797 33.8266H39.3207C39.8197 33.8266 40.224 34.2366 40.224 34.7425V55.1682H40.2236ZM17.583 55.1682H38.4175V53.4522H17.583V55.1682ZM17.583 51.6204H38.4175V49.9044H17.583V51.6204ZM17.583 48.0727H38.4175V46.3567H17.583V48.0727ZM17.583 44.5249H38.4175V42.8089H17.583V44.5249ZM17.583 40.9771H38.4175V39.2611H17.583V40.9771ZM17.583 37.4293H38.4175V35.6587H17.583V37.4293ZM36.9669 21.7981H19.0336C18.6647 21.7981 18.333 21.5706 18.1954 21.2233C18.0581 20.876 18.1426 20.4792 18.4092 20.2206L27.3758 11.5197C27.7251 11.1808 28.2754 11.1808 28.6247 11.5197L37.5912 20.2206C37.8579 20.4792 37.9424 20.8763 37.8051 21.2233C37.6675 21.5706 37.3358 21.7981 36.9669 21.7981ZM21.284 19.9663H34.7168L28.0004 13.4489L21.284 19.9663Z" fill="white"/>
</svg>
