<svg width="57" height="32" viewBox="0 0 57 32" fill="none" xmlns="http://www.w3.org/2000/svg">
<path d="M10.4948 26.2518H10.4859C10.032 26.2518 9.66846 26.6446 9.66846 27.129C9.66846 27.6135 10.0409 28.0063 10.4948 28.0063C10.9488 28.0063 11.3168 27.6135 11.3168 27.129C11.3168 26.6446 10.9488 26.2518 10.4948 26.2518Z" fill="white"/>
<path d="M17.5229 26.2518H17.5141C17.0602 26.2518 16.6965 26.6446 16.6965 27.129C16.6965 27.6135 17.0689 28.0063 17.5229 28.0063C17.9768 28.0063 18.3449 27.6135 18.3449 27.129C18.3449 26.6446 17.9768 26.2518 17.5229 26.2518Z" fill="white"/>
<path d="M46.5148 26.2518H46.5061C46.0521 26.2518 45.6885 26.6446 45.6885 27.129C45.6885 27.6135 46.0609 28.0063 46.5148 28.0063C46.9688 28.0063 47.3368 27.6135 47.3368 27.129C47.3368 26.6446 46.9688 26.2518 46.5148 26.2518Z" fill="white"/>
<path d="M55.3578 15.6462L54.2526 14.4667L52.0262 7.33834C52.3584 7.2257 52.5992 6.89411 52.5992 6.50241C52.5992 6.01795 52.2311 5.62519 51.7772 5.62519H43.8138V1.81479C43.8138 0.814058 43.051 0 42.1133 0H1.70049C0.762789 0 0 0.814175 0 1.81479V22.4416C0 23.4423 0.762789 24.2564 1.70049 24.2564H2.63557V26.1914C2.63557 27.1921 3.39836 28.0062 4.33606 28.0062H6.2289C6.61424 30.1396 8.376 31.7565 10.4858 31.7565C11.9305 31.7565 13.2116 30.9978 13.9999 29.835C14.7884 30.9978 16.0694 31.7565 17.5141 31.7565C19.624 31.7565 21.3858 30.1396 21.7711 28.0062H42.2489C42.6342 30.1396 44.396 31.7565 46.5058 31.7565C48.8968 31.7565 50.8419 29.6805 50.8419 27.129C50.8419 27.1088 50.8407 27.0891 50.8405 27.0691H54.4126C55.3503 27.0691 56.1131 26.255 56.1131 25.2543V17.5923C56.1132 16.8572 55.845 16.1661 55.3578 15.6462ZM6.2289 26.2519H4.33606C4.30483 26.2519 4.27951 26.2248 4.27951 26.1915V24.2565H7.09011C6.66487 24.828 6.36315 25.5082 6.2289 26.2519ZM10.4858 30.0023C9.00135 30.0023 7.79371 28.7133 7.79371 27.1292C7.79371 25.551 8.99237 24.2663 10.4691 24.2565H10.5028C11.9795 24.2662 13.1782 25.5509 13.1782 27.1292C13.1781 28.7133 11.9703 30.0023 10.4858 30.0023ZM17.5142 30.0023C16.0298 30.0023 14.822 28.7133 14.822 27.1292C14.822 25.551 16.0207 24.2663 17.4974 24.2565H17.5311C19.0078 24.2662 20.2065 25.5509 20.2065 27.1292C20.2064 28.7133 18.9987 30.0023 17.5142 30.0023ZM42.249 26.2519H21.7712C21.6369 25.5082 21.3352 24.8278 20.9099 24.2564H36.842C37.2959 24.2564 37.6639 23.8636 37.6639 23.3791C37.6639 22.8947 37.2959 22.5019 36.842 22.5019H1.70049C1.66926 22.5019 1.64394 22.4749 1.64394 22.4416V1.81479C1.64394 1.78145 1.66926 1.75444 1.70049 1.75444H42.1132C42.1444 1.75444 42.1698 1.78145 42.1698 1.81479V22.502H40.3565C39.9025 22.502 39.5345 22.8948 39.5345 23.3793C39.5345 23.8637 39.9025 24.2565 40.3565 24.2565H43.1102C42.6849 24.828 42.3833 25.5082 42.249 26.2519ZM52.6866 15.0009H47.3845C47.3532 15.0009 47.3279 14.9739 47.3279 14.9405V11.1298H51.4775L52.6866 15.0009ZM46.5059 30.0023C45.0215 30.0023 43.8138 28.7133 43.8138 27.1292C43.8138 25.551 45.0125 24.2663 46.4892 24.2565H46.506C46.5079 24.2565 46.5098 24.2562 46.5117 24.2561C47.9936 24.2594 49.1983 25.5469 49.1983 27.1291C49.1981 28.7133 47.9904 30.0023 46.5059 30.0023ZM54.4693 25.2545C54.4693 25.2879 54.444 25.3149 54.4128 25.3149H50.4945C49.832 23.6625 48.2938 22.5017 46.5059 22.5017C46.5002 22.5017 46.4948 22.5022 46.4891 22.5022H43.8138V7.44033V7.43986C43.8138 7.40653 43.8391 7.37951 43.8704 7.37951H50.3062L50.9296 9.37535H46.5059C46.052 9.37535 45.684 9.76811 45.684 10.2526V14.9405C45.684 15.9413 46.4468 16.7553 47.3845 16.7553H54.0722L54.1954 16.8868C54.372 17.0753 54.4693 17.3259 54.4693 17.5924V19.6893H53.5342C53.0803 19.6893 52.7123 20.0821 52.7123 20.5666C52.7123 21.051 53.0803 21.4438 53.5342 21.4438H54.4693V25.2545Z" fill="white"/>
</svg>
