<svg width="60" height="58" viewBox="0 0 60 58" fill="none" xmlns="http://www.w3.org/2000/svg">
<path d="M40.0304 26.3884C42.5518 25.3027 45.0852 24.229 47.6066 23.1432C49.2111 22.4556 50.8277 21.7679 52.4322 21.0803C52.8665 20.8872 53.3129 20.7063 53.7472 20.5133C53.8195 20.4771 53.8919 20.4529 53.9643 20.4167C53.7834 20.4891 53.6868 20.3082 53.6868 20.3926C53.6868 26.0024 53.6868 31.6121 53.6868 37.2219C53.6868 42.6386 53.6868 48.0674 53.6868 53.4841V53.4962C53.6868 54.6664 55.4964 54.6664 55.4964 53.4962C55.4964 48.2363 55.4964 42.9764 55.4964 37.7044C55.4964 31.9499 55.4964 26.1954 55.4964 20.4529C55.4964 19.6205 55.0139 18.9691 54.2056 18.7278C53.6627 18.5589 53.144 18.8243 52.6493 19.0415C51.3706 19.5843 50.1038 20.1272 48.8251 20.6822C45.7367 22.0092 42.6362 23.3362 39.5479 24.6633C39.4031 24.7236 39.2583 24.7839 39.1136 24.8442C38.6551 25.0373 38.5586 25.7008 38.7878 26.0868C39.0653 26.5211 39.572 26.5814 40.0304 26.3884Z" fill="white"/>
<path d="M25.0109 26.3884C27.5323 25.3026 30.0657 24.2289 32.5871 23.1432C34.1916 22.4555 35.8082 21.7679 37.4127 21.0802C37.847 20.8872 38.2933 20.7063 38.7276 20.5132C38.8 20.477 38.8724 20.4529 38.9448 20.4167C38.6432 20.5494 38.6673 20.1875 38.6673 20.6097C38.6673 25.7128 38.6673 30.8038 38.6673 35.9069C38.6673 41.7579 38.6673 47.621 38.6673 53.472V53.4841C38.6673 54.6543 40.4769 54.6543 40.4769 53.4841C40.4769 47.7778 40.4769 42.0716 40.4769 36.3774C40.4769 31.214 40.4769 26.0506 40.4769 20.8752C40.4769 19.898 40.2477 19.0294 39.1861 18.7036C38.6432 18.5347 38.1244 18.8001 37.6298 19.0173C36.351 19.5602 35.0843 20.1031 33.8055 20.658C30.7172 21.985 27.6167 23.3121 24.5283 24.6391C24.3836 24.6994 24.2388 24.7598 24.094 24.8201C23.6356 25.0131 23.5391 25.6766 23.7683 26.0627C24.0458 26.5211 24.5645 26.5814 25.0109 26.3884Z" fill="white"/>
<path d="M25.4573 53.4841C25.4573 47.7778 25.4573 42.0716 25.4573 36.3774C25.4573 31.3588 25.4573 26.3402 25.4573 21.3215C25.4573 20.1513 23.6477 20.1513 23.6477 21.3215C23.6477 26.304 23.6477 31.2864 23.6477 36.2688C23.6477 42.0113 23.6477 47.7537 23.6477 53.4962C23.6477 54.6543 25.4573 54.6543 25.4573 53.4841Z" fill="white"/>
<path d="M4.00756 53.484C4.00756 48.1397 4.00756 42.7954 4.00756 37.451C4.00756 32.0705 4.00756 26.6899 4.00756 21.3094C4.00756 20.1392 2.19797 20.1392 2.19797 21.3094C2.19797 26.6538 2.19797 31.9981 2.19797 37.3424C2.19797 42.723 2.19797 48.1035 2.19797 53.484C2.19797 54.6542 4.00756 54.6542 4.00756 53.484Z" fill="white"/>
<path d="M6.15478 17.0268C6.15478 16.327 6.15478 15.6153 6.15478 14.9156C6.15478 14.5295 6.15478 14.1435 6.15478 13.7574C6.15478 13.685 6.15478 13.6006 6.15478 13.5282C6.15478 13.6006 6.01001 13.6488 6.0462 13.6488C7.01132 13.6488 7.9885 13.6488 8.95362 13.6488C12.5849 13.6488 16.2161 13.6488 19.8474 13.6488C20.2817 13.6488 20.7281 13.6488 21.1624 13.6488C21.283 13.6488 21.4036 13.6488 21.5243 13.6488C21.7173 13.6488 21.5122 13.6609 21.4881 13.5161C21.6087 14.6622 21.4881 15.8807 21.4881 17.0268C21.4881 18.197 23.2977 18.197 23.2977 17.0268C23.2977 16.327 23.2977 15.6153 23.2977 14.9156C23.2977 14.1073 23.4545 13.106 22.8996 12.4424C22.1999 11.5859 20.7401 11.8392 19.7509 11.8392C16.1076 11.8392 12.4763 11.8392 8.83298 11.8392C8.14533 11.8392 7.44562 11.8392 6.75798 11.8392C6.40812 11.8392 5.94969 11.7789 5.59984 11.8875C4.28486 12.2977 4.30899 13.4558 4.30899 14.5778C4.30899 15.3981 4.30899 16.2185 4.30899 17.0388C4.34518 18.1849 6.15478 18.1849 6.15478 17.0268Z" fill="white"/>
<path d="M25.9277 16.1219C19.9802 16.1219 14.0327 16.1219 8.08513 16.1219C5.97394 16.1219 3.86274 16.1219 1.73948 16.1219C-0.456159 16.1219 0.0505284 19.1258 0.0505284 20.5373C0.0505284 21.5266 0.882942 22.2142 1.82393 22.2142C2.11347 22.2142 2.403 22.2142 2.68047 22.2142C9.46043 22.2142 16.2404 22.2142 23.0203 22.2142C23.9854 22.2142 24.9506 22.2142 25.9157 22.2142C26.8325 22.2142 27.5926 21.4421 27.5926 20.5253C27.5926 20.091 27.5926 19.6567 27.5926 19.2223C27.5926 18.7519 27.5926 18.2934 27.5926 17.8229C27.6046 16.8337 26.8567 16.2064 25.9277 16.1219C25.4331 16.0737 25.0229 16.5683 25.0229 17.0267C25.0229 17.5575 25.4331 17.8832 25.9277 17.9315C25.795 17.9194 25.795 17.7144 25.795 17.9074C25.795 18.0521 25.795 18.209 25.795 18.3537C25.795 18.8363 25.795 19.3189 25.795 19.8014C25.795 20.0548 25.795 20.296 25.795 20.5494C25.795 20.4167 26.0243 20.4167 25.8312 20.4167C24.9988 20.4167 24.1785 20.4167 23.3461 20.4167C19.751 20.4167 16.1559 20.4167 12.5729 20.4167C9.35185 20.4167 6.13077 20.4167 2.90969 20.4167C2.58396 20.4167 2.24617 20.4167 1.92044 20.4167C1.86012 20.4167 1.81187 20.4167 1.75155 20.4167C1.7998 20.4167 1.87219 20.4891 1.87219 20.5373C1.87219 20.4167 1.87219 20.296 1.87219 20.1754C1.87219 19.3912 1.87219 18.6071 1.87219 17.8229C1.87219 17.8229 1.6671 17.9194 1.7998 17.9194C1.89632 17.9194 1.99283 17.9194 2.08934 17.9194C8.62801 17.9194 15.1787 17.9194 21.7174 17.9194C23.1289 17.9194 24.5283 17.9194 25.9398 17.9194C27.0859 17.9315 27.0859 16.1219 25.9277 16.1219Z" fill="white"/>
<path d="M25.9276 17.9315C27.0978 17.9315 27.0978 16.1219 25.9276 16.1219C24.7574 16.1219 24.7574 17.9315 25.9276 17.9315Z" fill="white"/>
<path d="M53.1078 54.3888C54.0368 54.3888 54.9778 54.3888 55.9067 54.3888C56.0153 54.3888 55.8343 54.3647 55.8222 54.2561C55.8222 54.3165 55.8222 54.3647 55.8222 54.425C55.8222 54.7146 55.8222 55.0041 55.8222 55.2936C55.8222 55.8003 55.8222 56.295 55.8222 56.8016C55.8222 57.9718 57.6318 57.9718 57.6318 56.8016C57.6318 56.2226 57.6318 55.6435 57.6318 55.0644C57.6318 54.2561 57.6801 53.291 56.8356 52.8326C56.16 52.4707 55.3638 52.5792 54.6279 52.5792C54.1212 52.5792 53.6145 52.5792 53.0958 52.5792C51.9376 52.5792 51.9376 54.3888 53.1078 54.3888Z" fill="white"/>
<path d="M1.86015 56.8017C1.86015 56.0538 1.86015 55.3179 1.86015 54.5699C1.86015 54.4734 1.86015 54.3648 1.86015 54.2683C1.86015 54.3889 1.63094 54.3889 1.83602 54.3889C2.2462 54.3889 2.64431 54.3889 3.05449 54.3889C3.68181 54.3889 4.30914 54.3889 4.94853 54.3889C8.5074 54.3889 12.0542 54.3889 15.6131 54.3889C20.5593 54.3889 25.5055 54.3889 30.4518 54.3889C36.0856 54.3889 41.7195 54.3889 47.3534 54.3889C49.2716 54.3889 51.1777 54.3889 53.0958 54.3889C54.0127 54.3889 54.9296 54.3889 55.8585 54.3889C56.0274 54.3889 55.8344 54.1718 55.8344 54.3648C55.8344 54.6302 55.8344 54.9077 55.8344 55.1731C55.8344 55.716 55.8344 56.2588 55.8344 56.8017C55.8344 57.9719 57.644 57.9719 57.644 56.8017C57.644 56.0538 57.644 55.3179 57.644 54.5699C57.644 53.4238 57.0046 52.5793 55.7861 52.5793C54.7607 52.5793 53.7473 52.5793 52.7219 52.5793C49.356 52.5793 45.9902 52.5793 42.6243 52.5793C37.1593 52.5793 31.7064 52.5793 26.2414 52.5793C21.066 52.5793 15.8906 52.5793 10.7151 52.5793C8.31438 52.5793 5.92571 52.5793 3.52498 52.5793C2.76495 52.5793 1.92047 52.4466 1.19663 52.6758C0.183261 52.9895 0.0626211 53.9667 0.0626211 54.8474C0.0626211 55.4988 0.0626211 56.1503 0.0626211 56.8017C0.0505571 57.9719 1.86015 57.9719 1.86015 56.8017Z" fill="white"/>
<path d="M0.955233 57.7065C4.8519 57.7065 8.74856 57.7065 12.6452 57.7065C20.3782 57.7065 28.1112 57.7065 35.8442 57.7065C41.4661 57.7065 47.0879 57.7065 52.7097 57.7065C54.0488 57.7065 55.3879 57.7065 56.7149 57.7065C57.8851 57.7065 57.8851 55.8969 56.7149 55.8969C53.0233 55.8969 49.3318 55.8969 45.6402 55.8969C38.1605 55.8969 30.6809 55.8969 23.2012 55.8969C16.759 55.8969 10.3169 55.8969 3.87471 55.8969C2.89753 55.8969 1.92035 55.8969 0.943169 55.8969C-0.202908 55.8969 -0.202908 57.7065 0.955233 57.7065Z" fill="white"/>
<path d="M51.2017 41.7941C51.2017 40.3343 51.2017 38.8625 51.2017 37.4028C51.2017 36.3894 50.6468 35.4243 49.5007 35.4243C48.8372 35.4243 48.1616 35.4243 47.4981 35.4243C46.0625 35.4243 42.962 34.8814 42.962 37.1253C42.962 38.6213 42.962 40.1172 42.962 41.6131C42.962 41.6734 42.962 41.7338 42.962 41.7941C42.962 42.9643 44.7716 42.9643 44.7716 41.7941C44.7716 40.455 44.7716 39.1159 44.7716 37.7768C44.7716 37.5717 44.7716 37.3545 44.7716 37.1495C44.7716 37.2098 44.5304 37.246 44.8199 37.246C45.5558 37.246 46.2917 37.246 47.0276 37.246C47.7876 37.246 48.5356 37.246 49.2956 37.246C49.6334 37.246 49.3921 37.2822 49.3921 37.1253C49.3921 37.3183 49.3921 37.5114 49.3921 37.7044C49.3921 39.0676 49.3921 40.4429 49.3921 41.8061C49.3921 42.9522 51.2017 42.9522 51.2017 41.7941Z" fill="white"/>
<path d="M29.7521 41.794C29.7521 40.4549 29.7521 39.1158 29.7521 37.7767C29.7521 37.5716 29.7521 37.3545 29.7521 37.1494C29.7521 37.2097 29.5108 37.2459 29.8003 37.2459C30.5362 37.2459 31.2721 37.2459 32.008 37.2459C32.7681 37.2459 33.5281 37.2459 34.2761 37.2459C34.6139 37.2459 34.3726 37.2821 34.3726 37.1253C34.3726 37.3183 34.3726 37.5113 34.3726 37.7044C34.3726 39.0676 34.3726 40.4429 34.3726 41.8061C34.3726 42.9763 36.1822 42.9763 36.1822 41.8061C36.1822 40.3464 36.1822 38.8746 36.1822 37.4148C36.1822 36.4014 35.6272 35.4363 34.4811 35.4363C33.8176 35.4363 33.142 35.4363 32.4785 35.4363C31.0429 35.4363 27.9425 34.8934 27.9425 37.1373C27.9425 38.6333 27.9425 40.1292 27.9425 41.6251C27.9425 41.6855 27.9425 41.7458 27.9425 41.8061C27.9425 42.9522 29.7521 42.9522 29.7521 41.794Z" fill="white"/>
<path d="M17.314 5.19194C17.314 7.70125 17.314 10.2226 17.314 12.7319C17.314 13.9021 19.1236 13.9021 19.1236 12.7319C19.1236 10.2226 19.1236 7.70125 19.1236 5.19194C19.1236 4.02173 17.314 4.02173 17.314 5.19194Z" fill="white"/>
<path d="M10.341 12.732C10.341 9.64365 10.341 6.56733 10.341 3.47896C10.341 2.30875 8.53143 2.30875 8.53143 3.47896C8.53143 6.56733 8.53143 9.64365 8.53143 12.732C8.53143 13.9022 10.341 13.9022 10.341 12.732Z" fill="white"/>
<path d="M34.5535 5.27644C34.4691 4.15449 33.6728 3.43065 32.5509 3.43065C31.9598 3.43065 31.3807 3.43065 30.7896 3.43065C28.9196 3.43065 27.0497 3.43065 25.1798 3.43065C24.6369 3.43065 24.094 3.43065 23.5512 3.43065C22.574 3.43065 22.3206 2.13981 23.3099 1.85027C23.4788 1.80202 23.7201 1.83821 23.889 1.83821C24.3233 1.83821 24.7576 1.83821 25.1798 1.83821C31.9839 1.83821 38.8 1.83821 45.6041 1.83821C46.0143 1.83821 46.4245 1.83821 46.8346 1.83821C47.0518 1.83821 47.3172 1.81408 47.5223 1.89853C48.0531 2.13981 48.1496 2.7792 47.7756 3.18937C47.5464 3.44272 47.1483 3.49097 46.907 3.74432C46.5813 4.07004 46.3762 4.45609 46.328 4.92658C46.2314 6.0606 47.1483 6.9292 48.2461 6.9292C51.2501 6.9292 54.2419 6.9292 57.2458 6.9292C57.9094 6.9292 58.5488 7.59272 58.0179 8.22005C57.7767 8.50958 57.463 8.50958 57.1252 8.50958C56.1239 8.50958 55.1347 8.50958 54.1333 8.50958C50.4297 8.50958 46.714 8.50958 43.0104 8.50958C40.4407 8.50958 37.8711 8.50958 35.3135 8.50958C34.7707 8.50958 34.2278 8.50958 33.697 8.50958C33.2385 8.50958 32.7801 8.1356 32.8525 7.62891C32.9369 7.08604 33.3954 7.01365 33.7814 6.74824C34.2519 6.42252 34.5535 5.86757 34.5535 5.27644C34.5535 4.10624 32.7439 4.10624 32.7439 5.27644C32.7439 5.33676 32.3699 5.46946 32.3096 5.50566C31.996 5.67455 31.7305 5.95202 31.5255 6.24156C31.067 6.89301 30.9585 7.67717 31.1394 8.44926C31.4169 9.57121 32.5509 10.3312 33.6728 10.3312C34.4087 10.3312 35.1446 10.3312 35.8806 10.3312C39.4153 10.3312 42.9621 10.3312 46.4968 10.3312C49.7421 10.3312 52.9873 10.3312 56.2325 10.3312C57.2458 10.3312 58.2351 10.4157 59.0796 9.71598C60.286 8.71467 60.286 6.91714 59.2002 5.83138C58.6211 5.25231 57.8249 5.11961 57.0408 5.11961C54.0851 5.11961 51.1294 5.11961 48.1617 5.11961C48.1737 5.11961 48.1255 5.07135 48.1255 5.08342C48.1255 5.03516 48.5477 4.8542 48.596 4.83007C49.3801 4.37164 49.7782 3.50304 49.8265 2.62237C49.8989 1.21088 48.5718 0.0165486 47.2207 0.0165486C46.5692 0.0165486 45.9298 0.0165486 45.2784 0.0165486C38.4743 0.0165486 31.6702 0.0165486 24.8661 0.0165486C24.0337 0.0165486 22.9962 -0.104091 22.2483 0.306084C20.7041 1.17469 20.4387 3.0808 21.5486 4.39577C22.0914 5.04722 22.96 5.21612 23.7683 5.21612C26.7361 5.21612 29.7038 5.21612 32.6836 5.21612C32.6957 5.21612 32.7319 5.26438 32.7319 5.25231C32.8404 6.43458 34.65 6.44665 34.5535 5.27644Z" fill="white"/>
<path d="M9.19492 4.35952C12.1265 4.92653 15.046 5.49354 17.9775 6.06054C19.1115 6.27769 19.6061 4.54048 18.4601 4.31127C15.5285 3.74426 12.609 3.17725 9.67748 2.61025C8.54347 2.39309 8.04885 4.13031 9.19492 4.35952Z" fill="white"/>
</svg>
