<svg width="57" height="58" viewBox="0 0 57 58" fill="none" xmlns="http://www.w3.org/2000/svg">
<path d="M46.299 49.76L44.1657 43.3594C43.4203 41.1248 41.5183 39.4753 39.1999 39.0533L33.0416 37.9328V37.4554C34.1133 36.8334 35.0458 36.0013 35.7886 35.0163H37.649C39.1732 35.0163 40.4135 33.776 40.4135 32.2518V21.1941C40.4135 14.5889 35.0394 9.21481 28.4342 9.21481C21.829 9.21481 16.455 14.5889 16.455 21.1941V27.6444C16.455 29.4211 17.7183 30.9074 19.3936 31.2539C19.9105 33.9022 21.5655 36.1433 23.8268 37.4554V37.9328L17.6676 39.0533C15.3501 39.4753 13.4472 41.1248 12.7027 43.3594L12.3341 44.4661L9.19553 41.3275C8.83615 40.9681 8.83615 40.383 9.19553 40.0236L12.8354 36.3847L6.00352 29.5528L1.89003 33.6663C0.67183 34.8845 0.000991821 36.5045 0.000991821 38.2276C0.000991821 39.9508 0.67183 41.5699 1.89003 42.7881L14.3438 55.2419C15.562 56.4601 17.182 57.1318 18.9052 57.1318C20.6283 57.1318 22.2474 56.4601 23.437 55.2695L27.9256 51.1569L26.5258 49.76H46.299ZM38.5705 32.2518C38.5705 32.7605 38.1568 33.1733 37.649 33.1733H36.8741C37.1413 32.5642 37.344 31.922 37.4749 31.2539C37.8693 31.1719 38.2323 31.0152 38.5705 30.818V32.2518ZM37.649 29.2312V26.0576C38.1973 26.3774 38.5705 26.9653 38.5705 27.6444C38.5705 28.3236 38.1973 28.9115 37.649 29.2312ZM19.2194 29.2312C18.6711 28.9115 18.2979 28.3236 18.2979 27.6444C18.2979 26.9653 18.6711 26.3774 19.2194 26.0576V29.2312ZM19.2194 23.037V24.0894C18.8914 24.1751 18.5836 24.3041 18.2979 24.4709V21.1941C18.2979 15.6053 22.8454 11.0578 28.4342 11.0578C34.023 11.0578 38.5705 15.6053 38.5705 21.1941V24.4709C38.2849 24.3041 37.9771 24.1741 37.649 24.0894V23.037H36.7275C34.0027 23.037 31.441 21.9755 29.5133 20.0487L28.4342 18.9696L27.3552 20.0487C25.4274 21.9755 22.8657 23.037 20.1409 23.037H19.2194ZM21.0624 29.4874V24.845C23.8296 24.6367 26.4097 23.495 28.4342 21.57C30.4587 23.495 33.0389 24.6376 35.8061 24.845V29.4874C35.8061 30.8309 35.4393 32.0878 34.809 33.1733H28.4342V35.0163H33.2941C31.9948 36.1598 30.2965 36.8592 28.4342 36.8592C24.3696 36.8592 21.0624 33.5521 21.0624 29.4874ZM31.1987 38.2774V38.3207L28.4342 41.0852L25.6698 38.3207V38.2774C26.5433 38.552 27.4713 38.7022 28.4342 38.7022C29.3972 38.7022 30.3251 38.552 31.1987 38.2774ZM14.4498 43.9418C14.9815 42.3457 16.3407 41.1672 17.9966 40.8649L24.4377 39.6946L28.4342 43.6911L32.4298 39.6956L38.87 40.8658C40.5259 41.1681 41.8851 42.3457 42.4168 43.9427L43.7428 47.917H24.6829L21.0937 44.3279L17.1055 47.9355C16.7581 48.2847 16.1509 48.2847 15.8026 47.9355L13.79 45.9229L14.4498 43.9418ZM6.0026 32.1588L10.2285 36.3847L9.22778 37.3854L5.00187 33.1595L6.0026 32.1588ZM22.1608 53.9407C21.2909 54.8088 20.1335 55.2889 18.9033 55.2889C17.6732 55.2889 16.5158 54.8088 15.645 53.9389L3.19116 41.486C2.32128 40.6161 1.84211 39.4587 1.84211 38.2286C1.84211 36.9975 2.32128 35.8401 3.19116 34.9702L3.69797 34.4634L7.92389 38.6893L7.89071 38.7225C6.8135 39.8006 6.8135 41.5542 7.89071 42.6323L14.4987 49.2403C15.0211 49.7618 15.715 50.0502 16.454 50.0502C17.1931 50.0502 17.8869 49.7627 18.3753 49.2725L18.4444 49.2108L22.6897 53.456L22.1608 53.9407ZM24.0498 52.2084L19.8138 47.9723L21.031 46.8721L25.2597 51.1007L24.0498 52.2084Z" fill="white"/>
<path d="M54.2354 0H41.3347C39.8106 0 38.5703 1.24031 38.5703 2.76444V10.1363C38.5703 11.6604 39.8106 12.9007 41.3347 12.9007H43.796L42.8432 18.4582L51.7355 12.9007H54.2354C55.7596 12.9007 56.9999 11.6604 56.9999 10.1363V2.76444C56.9999 1.24031 55.7596 0 54.2354 0ZM55.1569 10.1363C55.1569 10.644 54.7432 11.0578 54.2354 11.0578H51.2065L45.3542 14.7151L45.9817 11.0578H41.3347C40.827 11.0578 40.4132 10.644 40.4132 10.1363V2.76444C40.4132 2.25671 40.827 1.84296 41.3347 1.84296H54.2354C54.7432 1.84296 55.1569 2.25671 55.1569 2.76444V10.1363Z" fill="white"/>
<path d="M28.4341 2.76445C16.3941 2.76445 6.0228 11.0928 3.32655 22.7099L1.58034 19.799L0 20.7472L3.23901 26.1443L8.63612 22.9053L7.68792 21.3249L5.1907 22.8233C7.80218 12.1958 17.3589 4.60741 28.4341 4.60741C30.8549 4.60741 33.2434 4.96679 35.5332 5.67633L36.0788 3.9163C33.6119 3.15147 31.0401 2.76445 28.4341 2.76445Z" fill="white"/>
<path d="M56.5523 20.4034L51.1551 17.1644L47.9171 22.5625L49.4974 23.5107L51.11 20.8227C51.9587 23.3061 52.3927 25.9038 52.3927 28.5659C52.3927 34.046 50.4944 39.4035 47.049 43.6506L48.4801 44.8116C52.1918 40.2374 54.2357 34.4671 54.2357 28.5659C54.2357 25.7471 53.7814 22.9947 52.8958 20.3592L55.6041 21.9838L56.5523 20.4034Z" fill="white"/>
</svg>
