<svg width="52" height="57" viewBox="0 0 52 57" fill="none" xmlns="http://www.w3.org/2000/svg">
<path d="M48.114 18.8916C47.0711 16.9743 45.8047 15.2262 44.3571 13.6716L47.0473 10.334C47.4486 9.83621 47.3702 9.10719 46.8723 8.70586C46.3744 8.30465 45.6453 8.38269 45.2441 8.88071L42.6953 12.0428C39.496 9.17968 35.6126 7.15484 31.3986 6.17814V1.15791C31.3986 0.518396 30.8802 0 30.2407 0H21.5428C20.9034 0 20.3849 0.518396 20.3849 1.15791V6.06073C17.9497 6.5716 15.5848 7.43436 13.3842 8.63129C11.6212 9.59016 9.99985 10.735 8.53822 12.0379L5.99371 8.88071C5.59249 8.38292 4.86336 8.30465 4.36546 8.70586C3.86755 9.10719 3.78916 9.83621 4.1905 10.334L6.87372 13.6631C4.19791 16.5299 2.2048 20.0003 1.06136 23.8709C-0.876635 30.4305 -0.144141 37.3521 3.12371 43.3606C7.61154 51.6119 16.2396 56.7376 25.6407 56.7376C29.8817 56.7376 34.105 55.6598 37.8536 53.6211C41.8771 51.4329 45.2407 48.2102 47.5809 44.3015C49.852 40.508 51.1111 36.167 51.2224 31.7477C51.3347 27.2827 50.2598 22.8371 48.114 18.8916ZM22.7007 2.31582H29.0829V5.75157C27.9375 5.5949 26.7734 5.51466 25.5972 5.51466C24.629 5.51466 23.6618 5.57372 22.7007 5.68476V2.31582ZM48.9072 31.6894C48.6982 39.9969 44.0388 47.621 36.7472 51.5867C33.3371 53.4415 29.4964 54.4218 25.6407 54.4218C17.0887 54.4218 9.24014 49.7594 5.15816 42.2543C-0.977836 30.9721 3.20894 16.8015 14.4908 10.6655C17.9008 8.81077 21.7415 7.83048 25.5972 7.83048C34.1492 7.83048 41.9976 12.4929 46.0795 19.998C48.0315 23.5871 49.0094 27.6299 48.9072 31.6894Z" fill="white"/>
<path d="M26.1817 13.4959C26.1943 13.4962 26.2068 13.4964 26.2193 13.4964C26.8417 13.4964 27.3559 13.0019 27.376 12.3754L27.3961 11.7448C27.4165 11.1055 26.9149 10.5708 26.2757 10.5505C25.6389 10.5301 25.1017 11.0318 25.0814 11.6709L25.0613 12.3016C25.0409 12.9407 25.5425 13.4754 26.1817 13.4959Z" fill="white"/>
<path d="M15.7239 15.1023C15.9327 15.492 16.3324 15.7138 16.7456 15.7138C16.9301 15.7138 17.1172 15.6695 17.2912 15.5764C17.8549 15.2746 18.0673 14.5729 17.7654 14.0091L17.4676 13.4528C17.1657 12.8892 16.4641 12.6768 15.9002 12.9787C15.3366 13.2805 15.1242 13.9822 15.4261 14.546L15.7239 15.1023Z" fill="white"/>
<path d="M10.2589 20.2289L9.72281 19.8962C9.17975 19.559 8.46566 19.7261 8.12836 20.2694C7.79106 20.8128 7.95815 21.5266 8.50156 21.8639L9.03767 22.1966C9.2278 22.3145 9.43877 22.3708 9.64719 22.3708C10.0345 22.3708 10.4129 22.1765 10.6321 21.8234C10.9694 21.28 10.8023 20.5662 10.2589 20.2289Z" fill="white"/>
<path d="M7.98876 30.563C8.00914 29.9237 7.50742 29.3891 6.86825 29.3689L6.23765 29.3488C5.59744 29.3289 5.06388 29.8302 5.0435 30.4693C5.02312 31.1086 5.52484 31.6432 6.16401 31.6636L6.79461 31.6836C6.80711 31.684 6.81973 31.6842 6.83212 31.6842C7.4545 31.6841 7.96873 31.1896 7.98876 30.563Z" fill="white"/>
<path d="M8.50184 38.9796L7.9457 39.2776C7.38191 39.5795 7.16978 40.2813 7.47176 40.845C7.68054 41.2346 8.08025 41.4564 8.49339 41.4564C8.67796 41.4564 8.86508 41.412 9.03911 41.3188L9.59526 41.021C10.159 40.719 10.3712 40.0172 10.0692 39.4536C9.76721 38.8898 9.06551 38.6775 8.50184 38.9796Z" fill="white"/>
<path d="M16.3163 46.1127C15.7728 45.7755 15.0592 45.9427 14.7218 46.4862L14.3891 47.0222C14.0519 47.5654 14.219 48.2793 14.7624 48.6166C14.9527 48.7347 15.1635 48.7909 15.3719 48.7909C15.7593 48.7909 16.1377 48.5966 16.357 48.2433L16.6896 47.7072C17.0268 47.1639 16.8596 46.4499 16.3163 46.1127Z" fill="white"/>
<path d="M25.0563 48.7561C24.4149 48.7372 23.8824 49.2373 23.8621 49.8766L23.8419 50.5071C23.8215 51.1463 24.3231 51.6811 24.9623 51.7014C24.9749 51.7018 24.9874 51.7019 24.9999 51.7019C25.6223 51.7019 26.1365 51.2075 26.1566 50.581L26.1767 49.9503C26.1971 49.3112 25.6955 48.7766 25.0563 48.7561Z" fill="white"/>
<path d="M35.5141 47.1495C35.2122 46.5858 34.5104 46.3732 33.9466 46.6756C33.3829 46.9774 33.1707 47.6792 33.4726 48.2429L33.7705 48.7992C33.9793 49.1889 34.3791 49.4107 34.7922 49.4107C34.9767 49.4107 35.1639 49.3663 35.338 49.2731C35.9016 48.9712 36.1139 48.2694 35.812 47.7056L35.5141 47.1495Z" fill="white"/>
<path d="M42.7363 40.3881L42.2003 40.0555C41.6571 39.7183 40.943 39.8853 40.6058 40.4287C40.2685 40.972 40.4356 41.6858 40.979 42.0231L41.515 42.3558C41.7052 42.4739 41.9161 42.5302 42.1246 42.5302C42.5119 42.5302 42.8903 42.3359 43.1095 41.9826C43.4467 41.4392 43.2796 40.7253 42.7363 40.3881Z" fill="white"/>
<path d="M45.0739 30.5885L44.4432 30.5685C43.8017 30.5495 43.2694 31.0498 43.2489 31.689C43.2285 32.3283 43.7303 32.8629 44.3694 32.8833L45.0001 32.9033C45.0126 32.9037 45.0253 32.9039 45.0377 32.9039C45.66 32.9039 46.1743 32.4093 46.1943 31.7828C46.2148 31.1435 45.7131 30.6089 45.0739 30.5885Z" fill="white"/>
<path d="M42.1904 23.4098C42.375 23.4098 42.5621 23.3656 42.7362 23.2723L43.2923 22.9745C43.8561 22.6726 44.0682 21.9708 43.7662 21.407C43.4644 20.8433 42.7625 20.6311 42.1989 20.9331L41.6428 21.231C41.079 21.5329 40.8668 22.2347 41.1688 22.7985C41.3775 23.1882 41.7773 23.4098 42.1904 23.4098Z" fill="white"/>
<path d="M36.4751 13.6354C35.932 13.2983 35.218 13.4655 34.8807 14.0089L34.548 14.545C34.2108 15.0883 34.378 15.8022 34.9214 16.1394C35.1116 16.2574 35.3224 16.3137 35.5309 16.3137C35.9182 16.3137 36.2967 16.1193 36.5159 15.7661L36.8486 15.23C37.1857 14.6864 37.0185 13.9725 36.4751 13.6354Z" fill="white"/>
<path d="M27.4482 28.0883C26.875 27.7434 26.2198 27.5612 25.5533 27.5612C24.6747 27.5612 23.8317 27.881 23.1747 28.4346L14.259 22.7754C13.719 22.4328 13.0034 22.5927 12.6609 23.1325C12.3181 23.6725 12.478 24.3879 13.0179 24.7308L21.9646 30.4096C21.8338 30.9697 21.8359 31.5567 21.9788 32.131C22.2161 33.0851 22.8108 33.8897 23.6533 34.3966C24.2264 34.7415 24.8818 34.9237 25.5483 34.9237C26.8336 34.9237 28.043 34.2402 28.7049 33.14C29.751 31.4008 29.1874 29.1347 27.4482 28.0883ZM26.7203 31.9463C26.4712 32.3606 26.033 32.608 25.5483 32.608C25.3024 32.608 25.0598 32.5403 24.847 32.4124C24.5345 32.2244 24.314 31.926 24.2261 31.5722C24.1381 31.2183 24.1932 30.8514 24.3812 30.5389C24.6304 30.1244 25.0687 29.8771 25.5533 29.8771C25.7991 29.8771 26.0416 29.9449 26.2544 30.0728C26.8993 30.4607 27.1085 31.3012 26.7203 31.9463Z" fill="white"/>
</svg>
