<svg width="53" height="53" viewBox="0 0 53 53" fill="none" xmlns="http://www.w3.org/2000/svg">
<path d="M47.907 26.7533C50.5842 23.8373 52.0324 20.0005 51.9499 16.0428C51.8673 12.0851 50.2603 8.31203 47.4639 5.51023C44.6674 2.70843 40.8975 1.09416 36.9399 1.00399C32.9824 0.91382 29.1428 2.35471 26.2217 5.02623C24.108 7.15263 22.6705 9.85678 22.0902 12.7983C21.5099 15.7398 21.8128 18.7873 22.9606 21.5571L4.89502 39.581L1 52L11.459 49.9315L14.2114 47.1792L13.786 42.6753L17.5643 43.8013L20.1748 41.1907L18.9404 37.8044L22.6103 38.797L21.9764 36.128L24.8956 36.495L31.3761 30.0144C34.146 31.1622 37.1934 31.465 40.135 30.8847C43.0765 30.3044 45.7806 28.867 47.907 26.7533V26.7533Z" stroke="white" stroke-width="2" stroke-linejoin="round"/>
<path d="M21.0172 27.6896L8.50644 40.2004" stroke="white" stroke-width="2" stroke-linejoin="round"/>
<path d="M22.335 26.3112L20.1748 28.4714" stroke="white" stroke-width="2" stroke-linejoin="round"/>
<path d="M45.2699 12.9992C46.7292 11.54 46.716 9.1609 45.2405 7.6854C43.765 6.2099 41.3859 6.1967 39.9267 7.65591C38.4675 9.11512 38.4807 11.4942 39.9562 12.9697C41.4317 14.4452 43.8107 14.4584 45.2699 12.9992Z" stroke="white" stroke-width="2" stroke-linejoin="round"/>
</svg>
