<svg width="29" height="29" viewBox="0 0 29 29" fill="none" xmlns="http://www.w3.org/2000/svg">
<path d="M14.6028 25.2191L10.8269 29.0002C7.21661 25.388 3.60879 21.7733 0 18.1591C4.58182 13.5716 9.16316 8.98355 13.745 4.39551L14.6028 5.25403C10.3068 9.5559 6.01076 13.8578 1.71472 18.1591L10.8264 27.2832L13.7455 24.3606L14.6028 25.2191Z" fill="white"/>
<path d="M28.0467 11.7559C23.8512 15.957 19.6558 20.1581 15.4599 24.3598L14.6025 23.5007C18.6551 19.4427 22.7076 15.3847 26.7606 11.3266L17.649 2.20215L15.4599 4.39421L14.6025 3.53569L17.649 0.484619C21.2568 4.10025 24.8666 7.71248 28.4758 11.3266L28.0467 11.7559Z" fill="white"/>
<path d="M5.49017 14.3772L18.0653 26.9699L27.1769 17.8458L24.5708 15.2357L25.4287 14.3772L28.8916 17.8458L18.0658 28.6874L4.63232 15.2362L5.49017 14.3772Z" fill="white"/>
<path d="M23.715 14.3774L11.2443 1.88941L2.13269 11.0129L4.63478 13.5184L3.77694 14.3774L0.417969 11.0129L11.2443 0.172363L24.5728 13.5184L23.715 14.3774Z" fill="white"/>
</svg>
