<svg width="88" height="88" viewBox="0 0 88 88" fill="none" xmlns="http://www.w3.org/2000/svg">
<path d="M87.0937 0.113094C86.9162 0.0390156 86.7257 0.0006875 86.5334 0H77.7334C77.3443 0.00223438 76.9715 0.156922 76.6951 0.430891L51.3334 25.7928V1.46661C51.3305 0.657766 50.6755 0.00292188 49.8668 0H41.0668C40.6777 0.00223438 40.3049 0.156922 40.0285 0.430891L0.430719 40.0287C0.156922 40.305 0.00223452 40.6777 1.43235e-07 41.0666V86.5332C-0.000171732 86.9222 0.154344 87.2953 0.429516 87.5705C0.704516 87.8455 1.07766 88 1.46678 88H46.9334C47.3225 87.998 47.6953 87.8431 47.9717 87.5691L87.5695 47.9714C87.8433 47.6951 87.9979 47.3223 88.0002 46.9334V1.46661C87.9978 0.874156 87.6406 0.340828 87.0937 0.113094ZM11.7334 74.1928V41.674L48.4 5.00724V28.726L37.0973 40.0287C36.8235 40.305 36.6688 40.6777 36.6666 41.0666V49.2594L11.7334 74.1928ZM36.6666 53.4072V76.2666H13.8072L36.6666 53.4072ZM41.674 2.93339H46.3262L9.65938 39.6H5.00724L41.674 2.93339ZM45.4666 85.0666H2.93339V42.5334H8.8V77.7334C8.8031 78.5421 9.45794 79.1969 10.2666 79.2H38.1332C38.5222 79.2002 38.8953 79.0457 39.1705 78.7705C39.4455 78.4955 39.6 78.1224 39.6 77.7332V42.5332H45.4666V85.0666ZM46.326 39.6H41.6739L50.9025 30.3713L50.9047 30.3691L78.3406 2.93339H82.9928L46.326 39.6ZM85.0666 46.326L48.4 82.9928V41.674L85.0666 5.00724V46.326Z" fill="black"/>
</svg>
