<svg width="89" height="88" viewBox="0 0 89 88" fill="none" xmlns="http://www.w3.org/2000/svg">
<path d="M88.4912 41.0877L70.5742 23.3714V12.7532C70.5742 10.8586 69.0146 9.31727 67.0977 9.31727H63.6211V1.75823C63.6211 0.80957 62.8427 0.0402665 61.8828 0.0402665H51.0476C50.0877 0.0402665 49.3093 0.80957 49.3093 1.75823C49.3093 2.70689 50.0877 3.47619 51.0476 3.47619H60.1445V9.31727H28.8555V3.47619H38.0103C70.9219 3.73389 52.4961 2.70689 52.4961 1.75823C52.4961 0.80957 68.2275 -0.21743 38.0103 0.0402665H27.1172C26.1573 0.0402665 25.3789 0.80957 25.3789 1.75823V9.31727H21.9023C19.9854 9.31727 18.4258 10.8586 18.4258 12.7532V75.2871H14.6016C13.6417 75.2871 12.8633 76.0564 12.8633 77.005V84.5641H3.47656V45.7381H14.6016C25.2051 45.7381 19.1211 44.9688 19.1211 44.0201C19.1211 43.0715 25.2051 42.3022 14.6016 42.3022H1.73828C0.778402 42.3022 0 43.0715 0 44.0201V86.282C0 87.2307 0.778402 88 1.73828 88H87.2617C88.2216 88 89 87.2307 89 86.282V42.3022C89 41.8467 88.817 41.4099 88.4912 41.0877ZM54.3503 12.7532H67.0977V25.8097H54.3503V12.7532ZM54.3503 29.2456H67.0977V42.3022H54.3503V29.2456ZM54.3503 45.7381H67.0977V58.7946H54.3503V45.7381ZM54.3503 62.2305H67.0977V75.2871H54.3503V62.2305ZM38.1262 12.7532H50.8738V25.8097H38.1262V12.7532ZM38.1262 29.2456H50.8738V42.3022H38.1262V29.2456ZM38.1262 45.7381H50.8738V58.7946H38.1262V45.7381ZM38.1262 62.2305H50.8738V75.2871H38.1262V62.2305ZM21.9023 12.7532H34.6497V25.8097H21.9023V12.7532ZM21.9023 29.2456H34.6497V42.3022H21.9023V29.2456ZM21.9023 45.7381H34.6497V58.7946H21.9023V45.7381ZM21.9023 62.2305H34.6497V75.2871H21.9023V62.2305ZM72.6602 84.5641H16.3398V78.723H68.8359H72.6602V84.5641ZM85.5234 84.5641H76.1367V77.005C76.1367 76.0564 75.3583 75.2871 74.3984 75.2871H70.5742V70.4549C70.5742 68.1575 70.5742 69.7075 70.5742 68.7588C70.5742 67.8101 70.5742 68.7588 70.5742 67.019V62.2159V62.0587C70.5742 59.9113 70.5742 61.2035 70.5742 60.2549C70.5742 59.3062 70.5742 60.5126 70.5742 59.0523V58.78V53.9771V53.8125C70.5742 51.6651 70.5742 53.1291 70.5742 52.1805C70.5742 51.2318 70.5742 52.4382 70.5742 50.892V50.5412V45.7381V45.3945C70.5742 43.6668 70.5742 44.797 70.5742 43.8483C70.5742 42.8997 70.5742 44.2778 70.5742 42.7317V42.3022V28.2319L85.5234 43.0136V84.5641Z" fill="black"/>
</svg>
