<svg width="111" height="88" viewBox="0 0 111 88" fill="none" xmlns="http://www.w3.org/2000/svg">
<path d="M110.104 25.8194C110.102 25.8023 110.098 25.7859 110.096 25.7688C110.089 25.7208 110.081 25.6732 110.071 25.6264C110.066 25.6079 110.061 25.5898 110.057 25.5715C110.045 25.5266 110.032 25.4823 110.016 25.4387C110.01 25.4209 110.004 25.4033 109.997 25.3855C109.98 25.3417 109.962 25.2991 109.941 25.2569C109.934 25.241 109.926 25.2248 109.918 25.2091C109.895 25.1634 109.869 25.1191 109.841 25.0758C109.835 25.0652 109.829 25.054 109.822 25.0437C109.787 24.991 109.749 24.9399 109.709 24.8914C109.699 24.8806 109.689 24.8705 109.68 24.86C109.648 24.8232 109.615 24.7876 109.58 24.7539C109.564 24.7384 109.547 24.7236 109.53 24.7087C109.499 24.6805 109.467 24.6534 109.433 24.6274C109.423 24.6199 109.415 24.6112 109.405 24.6039L76.7141 0.346277C76.4112 0.121361 76.0441 0 75.6669 0H34.4496C34.3615 0.000468575 34.2812 0.00796594 34.2017 0.0192117C34.1842 0.0217889 34.1666 0.0241319 34.149 0.0271776C34.0673 0.0412349 33.9869 0.0599775 33.9094 0.0848119C33.9023 0.0871548 33.8958 0.0899666 33.889 0.0923095C33.8112 0.118315 33.7362 0.150179 33.6638 0.186259C33.6545 0.190945 33.6448 0.194927 33.6355 0.199847C33.5598 0.239442 33.4879 0.284894 33.4192 0.334563C33.4134 0.33878 33.407 0.341592 33.4012 0.345809L0.710125 24.6042C0.263339 24.9357 0 25.4591 0 26.0153V86.2428C0 87.2135 0.786737 88 1.75716 88H108.358C109.329 88 110.115 87.2135 110.115 86.2428V26.0153C110.115 25.949 110.111 25.8838 110.104 25.8194ZM24.1236 84.4859V67.9244H44.7726V84.4859H24.1236ZM3.51431 84.4859V27.7724H20.6093V44.334V44.866C20.6093 46.2718 20.5002 43.6946 20.6093 46.2718C20.6093 47.2424 20.8516 45.8032 20.6093 47.8483V64.4096V64.5462C20.5802 66.4205 20.6093 65.2155 20.6093 66.1862C20.6093 67.1569 20.5979 65.3662 20.6093 67.7091V67.9239V84.4855H3.51431V84.4859ZM34.4482 3.94517L61.8224 24.2581H7.07408L34.4482 3.94517ZM44.7726 64.4098H24.1236V47.8485H44.7726V64.4098ZM44.7726 44.3342H24.1236V27.7727H44.7726V44.3342ZM48.2869 27.7724H65.3819V84.4857H48.2869V27.7724ZM89.5055 84.4859V79.2145C89.8492 59.0404 88.719 71.1062 87.7484 71.1062C86.7777 71.1062 85.7492 61.0319 85.9912 79.2145V84.4859H68.8962V26.0153C68.8962 25.4591 68.6329 24.9357 68.1863 24.6042L39.7647 3.51431H54.4767L82.4315 24.2581H74.1677C59.1576 24.0145 67.3576 25.0449 67.3576 26.0155C67.3576 26.9862 62.3205 27.7724 74.1677 27.7724H85.9912V72.1856C85.9912 73.1562 86.7777 73.9428 87.7484 73.9428C88.719 73.9428 89.5055 73.1562 89.5055 72.1856V26.0153C89.5055 25.949 89.5011 25.8838 89.4941 25.8194C89.4922 25.8023 89.4887 25.7859 89.4863 25.7688C89.4795 25.7208 89.4716 25.6732 89.461 25.6264C89.4568 25.6079 89.4516 25.5898 89.447 25.5715C89.4352 25.5266 89.4221 25.482 89.4069 25.4387C89.4008 25.4209 89.3942 25.4033 89.3875 25.3857C89.3706 25.3419 89.3518 25.2991 89.3317 25.2569C89.3242 25.241 89.3169 25.225 89.3087 25.2096C89.2848 25.1634 89.2588 25.1187 89.2309 25.0751C89.2246 25.065 89.219 25.0542 89.2122 25.0444C89.1768 24.9912 89.1391 24.9401 89.0983 24.8914C89.0904 24.8818 89.0812 24.8729 89.073 24.8635C89.0398 24.8253 89.0053 24.7885 88.969 24.7534C88.954 24.7389 88.9381 24.7253 88.9226 24.7112C88.8896 24.6815 88.8559 24.6531 88.8209 24.626C88.812 24.6192 88.8046 24.6112 88.7954 24.6046L60.374 3.51455H75.0858L103.041 24.2584H94.7768C79.6577 24.2581 88.4435 25.0449 88.4435 26.0155C88.4435 26.9862 79.3063 27.7724 94.7768 27.7727H106.601V84.4859H89.5055Z" fill="black"/>
</svg>
