<svg width="29" height="30" viewBox="0 0 29 30" fill="none" xmlns="http://www.w3.org/2000/svg">
<path d="M14.6028 25.5827L10.8269 29.3633C7.21661 25.7516 3.60879 22.1375 0 18.5238C4.58183 13.9369 9.16317 9.34957 13.745 4.76221L14.6028 5.6206C10.3068 9.92184 6.01076 14.2231 1.71472 18.5238L10.8264 27.6465L13.7455 24.7243L14.6028 25.5827Z" fill="#555555"/>
<path d="M28.0465 12.1209C23.8511 16.3214 19.6557 20.5219 15.4598 24.7229L14.6024 23.864C18.6549 19.8066 22.7075 15.7492 26.7605 11.6917L17.6489 2.5686L15.4598 4.76033L14.6024 3.90193L17.6489 0.851318C21.2567 4.46641 24.8664 8.0781 28.4757 11.6917L28.0465 12.1209Z" fill="#555555"/>
<path d="M5.49041 14.7417L18.0655 27.3325L27.1772 18.2098L24.5711 15.6001L25.4289 14.7417L28.8919 18.2098L18.066 29.0498L4.63257 15.6006L5.49041 14.7417Z" fill="#555555"/>
<path d="M23.7147 14.7422L11.2441 2.25588L2.13245 11.3781L4.63454 13.8833L3.77669 14.7422L0.417725 11.3781L11.2441 0.539062L24.5725 13.8833L23.7147 14.7422Z" fill="#555555"/>
</svg>
