<svg width="19" height="18" viewBox="0 0 19 18" fill="none" xmlns="http://www.w3.org/2000/svg">
<path d="M17.7153 12.7434C17.2378 11.9567 15.9778 11.6096 15.2691 11.4726C13.9758 11.2227 12.3091 11.2417 11.5012 11.8476C11.2353 12.0472 11.1028 12.4596 11.0719 13.1849C11.0678 13.2805 11.066 13.3738 11.0655 13.4622C9.69284 12.9321 8.42574 12.1412 7.34429 11.1394L6.86937 10.6672C5.86333 9.59331 5.0687 8.33512 4.53582 6.97245C4.62492 6.97201 4.71899 6.9702 4.81534 6.96616C5.54323 6.93542 5.95715 6.80394 6.15746 6.53991C6.7642 5.74017 6.78617 4.08886 6.5388 2.80715C6.40167 2.09636 6.05268 0.832716 5.25689 0.355123C4.46519 -0.120034 3.24154 -0.00540987 2.75216 0.066005C1.74256 0.21317 0.902627 0.569904 0.505266 1.02012C0.159007 1.41251 0.0373677 2.5323 0.00117311 2.99548C0.00019883 3.00765 -0.000142296 3.02017 5.25603e-05 3.0324C0.0596299 6.80516 1.51092 10.4078 4.08648 13.1754C4.08994 13.179 4.09345 13.1842 4.097 13.1877L4.81905 13.9087C4.8226 13.9123 4.82621 13.9219 4.82996 13.9253C7.61265 16.4858 11.2339 17.9026 15.0266 18C15.0286 18 15.0307 18 15.0327 18C15.0427 18 15.0528 17.9874 15.0628 17.9867C15.528 17.9507 16.6526 17.8177 17.0465 17.4741C17.4996 17.0787 17.8586 16.2427 18.0068 15.2378C18.0786 14.7505 18.194 13.532 17.7153 12.7434ZM17.2357 15.124C17.1192 15.9138 16.8372 16.6222 16.5344 16.8864C16.3986 16.9983 15.6942 17.142 15.0206 17.196C11.4285 17.1354 7.99973 15.7682 5.36328 13.3445L4.65205 12.6373C2.21528 10.0163 0.840712 6.60826 0.779819 3.03766C0.833648 2.36955 0.977744 1.6705 1.08984 1.53566C1.35625 1.23383 2.06952 0.953137 2.86478 0.837198C3.69891 0.715559 4.46197 0.786876 4.85597 1.02338C5.23614 1.25156 5.5878 1.99162 5.77369 2.95485C6.01765 4.21898 5.91896 5.54761 5.54489 6.05794C5.39382 6.16404 4.7089 6.22088 4.06646 6.18245C3.9967 6.16486 3.92134 6.16603 3.84803 6.19049C3.78402 6.21187 3.72926 6.24831 3.6863 6.29449C3.62438 6.35806 3.58366 6.44292 3.57674 6.5384C3.5708 6.62068 3.59101 6.69872 3.63013 6.76473C4.16891 8.33975 5.03081 9.79845 6.15186 11.0384C6.16511 11.0596 6.1806 11.0798 6.19834 11.0987C6.31384 11.2218 6.43187 11.3426 6.55215 11.4608C6.67125 11.5807 6.79284 11.6982 6.91702 11.8133C6.93606 11.8309 6.95638 11.8463 6.97762 11.8594C8.22421 12.9737 9.6907 13.8307 11.2739 14.3662C11.3398 14.4051 11.4178 14.4253 11.5 14.4191C11.5962 14.4121 11.6814 14.3707 11.7451 14.3079C11.7516 14.3018 11.7574 14.2951 11.7636 14.2885C11.7652 14.2866 11.7669 14.2847 11.7686 14.2827C11.803 14.2441 11.831 14.1989 11.8482 14.1468C11.8725 14.0735 11.8734 13.9984 11.8557 13.9289C11.8174 13.2917 11.8741 12.613 11.9802 12.463C12.4977 12.0879 13.8426 11.9908 15.1214 12.238C16.0825 12.4237 16.8213 12.7723 17.0492 13.1478C17.2863 13.5386 17.3578 14.2959 17.2357 15.124Z" fill="#1D479B"/>
</svg>
