<svg width="87" height="88" viewBox="0 0 87 88" fill="none" xmlns="http://www.w3.org/2000/svg">
<path d="M43 2L24 7.16049M43 2L63.75 7.5M43 2V27M24 7.16049L43 27M24 7.16049L18 8.79012M43 27L63.75 7.5M63.75 7.5L69.5 9.0241M69.5 9.0241L84.5 13V27.5H80M69.5 9.0241V27.5M69.5 27.5H80M69.5 27.5H57.5M18 8.79012L2.5 13V27.5H7.5M18 8.79012V27.5M18 27.5H7.5M18 27.5H30M7.5 27.5V50.5M7.5 62.5H2V86H13.5M7.5 62.5V50.5M7.5 62.5H13.5V86M80 62.5H85V86H74.5M80 62.5V49.5M80 62.5H74.5V86M80 27.5V49.5M7.5 50.5L30 27.5M30 27.5H57.5M80 49.5L57.5 27.5M74.5 86H13.5" stroke="black" stroke-width="3"/>
</svg>
